<svg width="24" height="24" viewBox="0 0 24 24" fill="none" xmlns="http://www.w3.org/2000/svg">
<path d="M17.5002 12.6369H12.6391V17.498C12.6391 17.7559 12.5367 18.0032 12.3543 18.1855C12.172 18.3678 11.9247 18.4703 11.6669 18.4703C11.409 18.4703 11.1617 18.3678 10.9794 18.1855C10.7971 18.0032 10.6947 17.7559 10.6947 17.498V12.6369H5.83355C5.5757 12.6369 5.32841 12.5345 5.14609 12.3522C4.96376 12.1699 4.86133 11.9226 4.86133 11.6647C4.86133 11.4069 4.96376 11.1596 5.14609 10.9773C5.32841 10.7949 5.5757 10.6925 5.83355 10.6925H10.6947V5.83138C10.6947 5.57353 10.7971 5.32625 10.9794 5.14392C11.1617 4.96159 11.409 4.85916 11.6669 4.85916C11.9247 4.85916 12.172 4.96159 12.3543 5.14392C12.5367 5.32625 12.6391 5.57353 12.6391 5.83138V10.6925H17.5002C17.7581 10.6925 18.0054 10.7949 18.1877 10.9773C18.37 11.1596 18.4724 11.4069 18.4724 11.6647C18.4724 11.9226 18.37 12.1699 18.1877 12.3522C18.0054 12.5345 17.7581 12.6369 17.5002 12.6369Z" fill="white"/>
</svg>
