<svg width="235" height="41" viewBox="0 0 235 41" fill="none" xmlns="http://www.w3.org/2000/svg">
<mask id="mask0_216_129" style="mask-type:luminance" maskUnits="userSpaceOnUse" x="0" y="0" width="235" height="41">
<path d="M235 0H0V40.2858H235V0Z" fill="white"/>
</mask>
<g mask="url(#mask0_216_129)">
<path d="M31.893 0H8.39288C3.75763 0 0 3.75763 0 8.39288V31.893C0 36.5283 3.75763 40.2858 8.39288 40.2858H31.893C36.5283 40.2858 40.2858 36.5283 40.2858 31.893V8.39288C40.2858 3.75763 36.5283 0 31.893 0Z" fill="white" fill-opacity="0.06"/>
<path d="M28.3133 27.7366L24.0992 25.5374L20.0352 34.3229L28.3133 27.7366Z" fill="#E50914"/>
<path d="M28.3175 27.733L24.0996 25.5376L24.9801 5.88269L28.3175 27.733Z" fill="#9A0000"/>
<path d="M11.7539 27.737L16.6792 28.6636L20.0358 34.3231L11.7539 27.737Z" fill="#E50914"/>
<path d="M11.75 27.733L16.6753 28.6636L24.9802 5.87501L11.75 27.733Z" fill="#9A0000"/>
<path d="M20.0353 34.3229L16.6748 28.6632L24.0992 25.5374L20.0353 34.3229Z" fill="#9A0000"/>
<path d="M24.9797 5.87501L24.0992 25.5376L16.6748 28.6636L24.9797 5.87501Z" fill="#E50914"/>
<path d="M58.1 19.9083H55.3931V18.5185H62.3218V19.9083H59.6151V27.0553H58.104V19.9083H58.1Z" fill="#E50914"/>
<path d="M65.7759 18.5185H67.2746V22.0657H71.3471V18.5185H72.846V27.0553H71.3471V23.4595H67.2746V27.0553H65.7759V18.5185Z" fill="#E50914"/>
<path d="M76.3447 18.5185V19.8639H77.8437L82.6756 19.8599V18.5185H76.3447ZM77.8437 25.7139V25.6978H76.3447V27.0553H82.7362V25.7099H77.8477L77.8437 25.7139ZM82.1261 22.0818H77.8437V22.0738H76.3447V23.4152H82.1261V22.0818Z" fill="#E50914"/>
<path d="M88.1377 22.8293V22.7848C88.1377 18.3932 91.5277 14.7167 96.3191 14.7167C101.111 14.7167 104.456 18.3488 104.456 22.7404V22.7848C104.456 27.1764 101.066 30.853 96.2746 30.853C91.4832 30.853 88.1377 27.2209 88.1377 22.8293ZM101.58 22.8293V22.7848C101.58 19.7547 99.3733 17.2338 96.2746 17.2338C93.176 17.2338 91.0149 19.7063 91.0149 22.7404V22.7848C91.0149 25.815 93.2205 28.3359 96.3191 28.3359C99.4177 28.3359 101.58 25.8635 101.58 22.8293Z" fill="white"/>
<path d="M110.157 14.9834H117.159C118.94 14.9834 120.346 15.4722 121.239 16.3651C121.93 17.056 122.285 17.9044 122.285 18.9508V18.9952C122.285 20.8659 121.215 21.8718 120.055 22.4739C121.882 23.0999 123.154 24.1464 123.154 26.2634V26.3078C123.154 29.0955 120.859 30.5863 117.38 30.5863H110.157V14.9834ZM116.601 21.5607C118.362 21.5607 119.543 20.8699 119.543 19.4437V19.3992C119.543 18.171 118.561 17.4156 116.799 17.4156H112.852V21.5607H116.596H116.601ZM117.405 28.1582C119.275 28.1582 120.414 27.4229 120.414 26.0169V25.9726C120.414 24.6555 119.369 23.8757 117.203 23.8757H112.856V28.1542H117.405V28.1582Z" fill="white"/>
<path d="M127.586 28.3118L129.235 26.3483C130.73 27.6411 132.22 28.3764 134.16 28.3764C135.853 28.3764 136.923 27.5966 136.923 26.4129V26.3685C136.923 25.2534 136.301 24.6513 133.4 23.9848C130.079 23.1807 128.204 22.2031 128.204 19.3265V19.282C128.204 16.6075 130.435 14.7571 133.534 14.7571C135.808 14.7571 137.614 15.448 139.198 16.7206L137.727 18.7932C136.321 17.7468 134.919 17.1893 133.493 17.1893C131.889 17.1893 130.952 18.0135 130.952 19.0397V19.0841C130.952 20.2881 131.667 20.8214 134.652 21.5364C137.953 22.3405 139.67 23.5201 139.67 26.1058V26.1503C139.67 29.0714 137.376 30.8085 134.095 30.8085C131.712 30.8085 129.457 29.9844 127.586 28.3118Z" fill="white"/>
<path d="M145.436 14.9834H148.179V30.5863H145.436V14.9834Z" fill="white"/>
<path d="M160.542 14.9834H154.724V17.4802H160.542C163.818 17.4802 165.959 19.7305 165.959 22.7808V22.8293C165.959 25.8836 163.818 28.0896 160.542 28.0896H157.709L154.724 28.0936V30.5863H160.542C165.45 30.5863 168.835 27.1724 168.835 22.7808V22.7403C168.835 18.3447 165.45 14.9794 160.542 14.9794V14.9834Z" fill="white"/>
<path d="M174.693 14.9834H177.437V30.5863H174.693V14.9834Z" fill="white"/>
<path d="M199.75 30.634H196.761L195.694 28.1249H195.703L194.079 24.3426H194.096L191.313 18.0137L188.898 23.5503H188.885L188.648 24.1184L188.552 24.3426H188.556L187.527 26.8144H187.519L185.861 30.634H182.965L190.048 14.6875H192.671L199.75 30.634Z" fill="white"/>
<path d="M217.572 14.9834V30.5903H215.276L214.829 30.0125L206.672 19.4841V30.5903H203.976V14.9834H206.513L214.829 25.7059V14.9834H217.572Z" fill="#E50914"/>
<path d="M222.916 28.3118L224.565 26.3483C226.059 27.6411 227.551 28.3764 229.489 28.3764C231.183 28.3764 232.254 27.5966 232.254 26.4129V26.3685C232.254 25.2534 231.631 24.6513 228.73 23.9848C225.409 23.1807 223.534 22.2031 223.534 19.3265V19.282C223.534 16.6075 225.766 14.7571 228.863 14.7571C231.139 14.7571 232.944 15.448 234.527 16.7206L233.057 18.7932C231.651 17.7468 230.249 17.1893 228.823 17.1893C227.22 17.1893 226.282 18.0135 226.282 19.0397V19.0841C226.282 20.2881 226.996 20.8214 229.982 21.5364C233.283 22.3405 235 23.5201 235 26.1058V26.1503C235 29.0714 232.706 30.8085 229.426 30.8085C227.042 30.8085 224.787 29.9844 222.916 28.3118Z" fill="#E50914"/>
</g>
</svg>
