<svg width="191" height="55" viewBox="0 0 191 55" fill="none" xmlns="http://www.w3.org/2000/svg">
<g clip-path="url(#clip0_216_436)">
<mask id="mask0_216_436" style="mask-type:luminance" maskUnits="userSpaceOnUse" x="0" y="0" width="191" height="55">
<path d="M191 0H0V54.1167H191V0Z" fill="white"/>
</mask>
<g mask="url(#mask0_216_436)">
<path d="M26.1642 22.3803C25.2009 24.1095 23.7215 25.5027 21.7259 26.5598C19.7304 27.617 17.2531 28.1464 14.2941 28.1481H8.82355V41.0692H0.012207V5.07715H14.3068C17.1969 5.07715 19.6397 5.57238 21.6353 6.56285C23.5142 7.44934 25.0796 8.87913 26.1265 10.6648C27.1472 12.5004 27.663 14.571 27.622 16.6677C27.6389 18.6648 27.1369 20.6325 26.1642 22.3803ZM17.3907 19.9967C18.2165 19.2114 18.6294 18.1008 18.6294 16.6652C18.6294 15.2295 18.2165 14.1181 17.3907 13.331C16.565 12.5457 15.3062 12.153 13.6144 12.153H8.82355V21.1773H13.6245C15.3096 21.1773 16.565 20.7838 17.3907 19.9967Z" fill="black"/>
<path d="M31.5242 8.12636C31.0488 7.70565 30.6704 7.18797 30.415 6.60868C30.1595 6.02939 30.0329 5.40213 30.0438 4.76976C30.0284 4.12941 30.152 3.49327 30.4061 2.90458C30.6603 2.31589 31.039 1.78847 31.5166 1.35815C32.495 0.452721 33.7589 0 35.308 0C36.8185 0 38.0663 0.452721 39.0515 1.35815C39.5282 1.78901 39.9063 2.31659 40.1599 2.90519C40.4136 3.49378 40.537 4.12967 40.5217 4.76976C40.5334 5.40129 40.4082 6.02792 40.1546 6.60709C39.9008 7.18627 39.5246 7.70442 39.0515 8.12636C38.0697 9.03346 36.8219 9.487 35.308 9.487C33.7655 9.487 32.5043 9.03346 31.5242 8.12636ZM39.7036 12.4609V41.0695H30.8771V12.4609H39.7036Z" fill="black"/>
<path d="M44.8069 18.9715C45.9735 16.8059 47.7492 15.0244 49.9175 13.8441C52.0994 12.6485 54.6017 12.0508 57.4248 12.0508C61.0383 12.0508 64.0593 12.9904 66.4879 14.8696C68.9164 16.7488 70.5109 19.3985 71.2712 22.8184H61.8632C61.0727 20.6306 59.542 19.5368 57.2712 19.5368C56.5216 19.5138 55.7775 19.672 55.103 19.9979C54.4285 20.3238 53.8438 20.8076 53.3992 21.4077C52.4309 22.6566 51.9466 24.4425 51.9466 26.7652C51.9466 29.0881 52.4283 30.8739 53.3917 32.1228C53.8361 32.7232 54.4208 33.2074 55.0952 33.5337C55.7697 33.86 56.5138 34.0188 57.2636 33.9962C59.5345 33.9962 61.0651 32.9024 61.8557 30.7146H71.2561C70.4991 34.0629 68.8997 36.6942 66.4576 38.6084C64.0157 40.5226 61.0048 41.4798 57.4248 41.4798C54.6051 41.4798 52.1027 40.882 49.9175 39.6864C47.7482 38.5075 45.9721 36.7256 44.8069 34.5589C43.5868 32.3379 42.9758 29.7399 42.9741 26.7652C42.9724 23.7905 43.5834 21.1927 44.8069 18.9715Z" fill="black"/>
<path d="M92.1285 41.0691L83.3548 29.0634V41.0691H74.5283V3.12866H83.3548V24.0986L92.0756 12.4606H102.966L90.993 26.8174L103.077 41.0742L92.1285 41.0691Z" fill="black"/>
<path d="M115.167 3.12866V41.0691H106.356V3.12866H115.167Z" fill="black"/>
<path d="M147.188 28.8285H127.221C127.359 30.6077 127.935 31.9666 128.95 32.9054C129.964 33.8435 131.307 34.3492 132.692 34.3135C134.895 34.3135 136.426 33.3906 137.286 31.5448H146.679C146.205 33.4102 145.313 35.1456 144.071 36.6222C142.79 38.1443 141.175 39.3543 139.35 40.1588C137.351 41.0405 135.182 41.4816 132.994 41.452C130.173 41.452 127.661 40.8533 125.459 39.6561C123.275 38.4789 121.483 36.6978 120.297 34.5286C119.059 32.3076 118.439 29.7097 118.439 26.7349C118.439 23.7602 119.051 21.1623 120.273 18.9412C121.443 16.7705 123.229 14.9879 125.408 13.8138C127.609 12.6183 130.137 12.0205 132.994 12.0205C135.781 12.0205 138.258 12.6041 140.426 13.7713C142.566 14.9072 144.332 16.634 145.508 18.7437C146.729 20.898 147.339 23.4109 147.341 26.2823C147.339 27.1332 147.287 27.9833 147.188 28.8285ZM138.31 23.9562C138.31 22.4554 137.795 21.259 136.763 20.367C135.73 19.4749 134.439 19.0305 132.891 19.0338C131.528 18.9932 130.197 19.4496 129.149 20.3169C128.142 21.1723 127.515 22.3854 127.266 23.9562H138.31Z" fill="black"/>
<path d="M152.291 18.9711C153.301 16.8708 154.884 15.0943 156.86 13.8437C158.794 12.646 161.031 12.0237 163.31 12.0504C165.108 12.0291 166.886 12.4329 168.496 13.2284C169.985 13.9494 171.257 15.0455 172.186 16.4075V3.12866H180.998V41.0691H172.186V36.9697C171.335 38.3619 170.116 39.4959 168.662 40.2488C167.013 41.0967 165.176 41.5199 163.32 41.4794C161.038 41.5059 158.798 40.8742 156.87 39.6609C154.891 38.3907 153.309 36.5966 152.301 34.4811C151.183 32.2433 150.624 29.6545 150.624 26.7149C150.624 23.7751 151.18 21.1939 152.291 18.9711ZM170.354 21.585C169.777 20.9876 169.085 20.512 168.319 20.1863C167.552 19.8606 166.729 19.6916 165.896 19.6892C165.063 19.6868 164.238 19.8513 163.469 20.1727C162.702 20.4941 162.007 20.9659 161.427 21.5599C160.203 22.8072 159.593 24.5255 159.594 26.7149C159.596 28.9042 160.206 30.6383 161.427 31.9173C161.999 32.5224 162.689 33.005 163.456 33.3358C164.222 33.6666 165.049 33.8386 165.884 33.8411C166.72 33.8437 167.548 33.6769 168.316 33.3508C169.085 33.0248 169.778 32.5463 170.354 31.9448C171.574 30.6793 172.185 28.9526 172.186 26.7648C172.188 24.5772 171.577 22.8505 170.354 21.585Z" fill="black"/>
<path d="M185.66 3.45381V6.38021H185.318V3.45381H184.233L184.251 3.12866H186.739V3.45381H185.66ZM187.586 3.57137V6.38021H187.249V3.12866H187.732L189.124 5.3222L190.512 3.12866H191V6.38021H190.663V3.57137L189.212 5.87246H189.044L187.586 3.57137Z" fill="black"/>
<path d="M4.3654 49.2457H1.29653L0.709941 50.8316H0L2.44956 44.2434H3.20481L5.64682 50.8316H4.93687L4.3654 49.2457ZM4.16399 48.693L2.83725 45.0838L1.49793 48.7056L4.16399 48.693Z" fill="black"/>
<path d="M19.8228 45.886C20.1665 46.091 20.4409 46.3932 20.6108 46.7539V45.6184H21.283V50.956C21.2918 51.3993 21.1842 51.8372 20.9707 52.2266C20.7707 52.5892 20.4691 52.8864 20.1022 53.082C19.7144 53.2848 19.2817 53.388 18.8435 53.3821C18.2477 53.404 17.6603 53.2367 17.1668 52.9044C16.7283 52.5976 16.4296 52.131 16.336 51.6063H16.9982C17.1089 51.9633 17.3423 52.2706 17.6577 52.4742C18.0104 52.7001 18.4241 52.8135 18.8435 52.7993C19.1613 52.8042 19.4754 52.7302 19.7574 52.5842C20.0266 52.4392 20.2465 52.2181 20.3893 51.9489C20.552 51.6409 20.6318 51.2962 20.6208 50.9484V49.6603C20.4482 50.0247 20.1726 50.3314 19.8278 50.5432C19.4443 50.7816 18.9986 50.9024 18.5464 50.8909C18.0928 50.8979 17.6457 50.783 17.2525 50.5583C16.8699 50.3341 16.5599 50.0061 16.3587 49.6129C16.1466 49.1724 16.0366 48.6904 16.0366 48.2021C16.0366 47.7139 16.1466 47.232 16.3587 46.7915C16.5602 46.4011 16.8704 46.0762 17.2525 45.8561C17.6462 45.6329 18.0931 45.5189 18.5464 45.5259C18.9979 45.5215 19.4411 45.6467 19.8228 45.886ZM20.3515 47.1166C20.1898 46.8104 19.9447 46.5556 19.644 46.3813C19.3442 46.2123 19.0044 46.126 18.6598 46.1311C18.3078 46.1257 17.9606 46.212 17.6527 46.3813C17.3559 46.5508 17.1146 46.8017 16.9578 47.1041C16.781 47.4508 16.6944 47.8362 16.7061 48.2247C16.6959 48.6139 16.7823 48.9997 16.9578 49.3477C17.1122 49.6544 17.3538 49.9092 17.6527 50.0805C17.9596 50.2525 18.3075 50.3389 18.6598 50.3307C19.0044 50.3359 19.3442 50.2495 19.644 50.0805C19.9447 49.9062 20.1898 49.6514 20.3515 49.3452C20.5229 49.0007 20.612 48.6215 20.612 48.2372C20.612 47.8528 20.5229 47.4737 20.3515 47.1291V47.1166Z" fill="black"/>
<path d="M37.1587 48.4828H32.8133C32.821 48.8392 32.9198 49.1878 33.1004 49.4958C33.2636 49.7662 33.5 49.9855 33.7827 50.1286C34.0684 50.274 34.3855 50.3478 34.7066 50.3438C35.0977 50.3569 35.4828 50.2466 35.8067 50.0286C36.0987 49.8244 36.3082 49.5239 36.3984 49.1807H37.0932C36.9728 49.6791 36.683 50.1209 36.2725 50.4312C35.8149 50.7636 35.2578 50.9328 34.6915 50.9115C34.228 50.9199 33.7704 50.8069 33.3648 50.5839C32.9756 50.3654 32.6577 50.0407 32.4483 49.6485C32.2191 49.211 32.1047 48.7233 32.116 48.2303C32.1046 47.7362 32.2171 47.2472 32.4433 46.8071C32.6478 46.4129 32.9648 46.0875 33.3547 45.8717C33.7646 45.6507 34.2252 45.5388 34.6915 45.5464C35.15 45.5372 35.6027 45.6494 36.0032 45.8717C36.3665 46.0778 36.6654 46.3799 36.8666 46.7445C37.0716 47.1178 37.1765 47.5374 37.1712 47.9626C37.1788 48.1878 37.1712 48.3629 37.1587 48.4828ZM36.2599 46.9547C36.1032 46.6876 35.8713 46.4719 35.5928 46.3344C35.3057 46.193 34.9892 46.1211 34.6688 46.1242C34.1974 46.1144 33.7402 46.2856 33.3924 46.602C33.2099 46.7766 33.0641 46.9855 32.9634 47.2164C32.8627 47.4474 32.8092 47.696 32.8059 47.9476H36.4966C36.5121 47.6012 36.4301 47.2574 36.2599 46.9547Z" fill="black"/>
<path d="M52.0145 46.1016C52.4123 46.4868 52.6111 47.0453 52.6111 47.7774V50.8314H51.9466V47.8525C51.9796 47.3809 51.8261 46.915 51.5186 46.5543C51.3677 46.4014 51.1856 46.2823 50.9846 46.2051C50.7835 46.1278 50.5681 46.0942 50.3529 46.1066C50.1287 46.0958 49.9047 46.1327 49.6959 46.2146C49.4871 46.2966 49.2983 46.4218 49.142 46.5819C48.8147 46.9741 48.6523 47.4768 48.6888 47.985V50.8314H48.0166V45.6189H48.6888V46.5068C48.8484 46.1954 49.1007 45.9403 49.4113 45.7764C49.7392 45.6046 50.1057 45.5186 50.4763 45.5264C50.7584 45.5151 51.0398 45.5602 51.3041 45.659C51.5683 45.7578 51.8099 45.9083 52.0145 46.1016Z" fill="black"/>
<path d="M63.7286 46.8069C63.9332 46.4154 64.2469 46.0905 64.6324 45.8715C65.0339 45.6468 65.4884 45.5327 65.9491 45.5414C66.5207 45.5185 67.0837 45.6867 67.5477 46.0191C67.9683 46.3395 68.2573 46.8008 68.3609 47.3172H67.6409C67.5634 46.9616 67.3563 46.6472 67.0594 46.4343C66.7329 46.2131 66.344 46.101 65.9491 46.1141C65.6151 46.1122 65.2867 46.1984 64.9975 46.3642C64.7082 46.5289 64.4757 46.7765 64.3303 47.0746C64.1539 47.4357 64.0675 47.8338 64.0785 48.2351C64.0686 48.638 64.1548 49.0374 64.3303 49.4007C64.4757 49.7 64.708 49.9493 64.9975 50.116C65.2879 50.2774 65.6164 50.3593 65.9491 50.3536C66.3441 50.3678 66.7333 50.2556 67.0594 50.0335C67.3583 49.8182 67.5657 49.4998 67.6409 49.1406H68.3609C68.2519 49.6539 67.9617 50.1117 67.5426 50.4311C67.0823 50.7679 66.5203 50.9391 65.9491 50.9164C65.4887 50.9258 65.0341 50.8126 64.6324 50.5888C64.2475 50.369 63.9339 50.0444 63.7286 49.6532C63.513 49.2113 63.4009 48.7264 63.4009 48.2351C63.4009 47.7438 63.513 47.259 63.7286 46.8169V46.8069Z" fill="black"/>
<path d="M83.5343 45.6189L80.4201 53.285H79.7201L80.7272 50.8038L78.5747 45.6189H79.3149L81.1024 50.0685L82.8319 45.6189H83.5343Z" fill="black"/>
</g>
</g>
<defs>
<clipPath id="clip0_216_436">
<rect width="191" height="54.2458" fill="white"/>
</clipPath>
</defs>
</svg>
