<svg width="177" height="89" viewBox="0 0 177 89" fill="none" xmlns="http://www.w3.org/2000/svg">
<g clip-path="url(#clip0_216_484)">
<mask id="mask0_216_484" style="mask-type:luminance" maskUnits="userSpaceOnUse" x="0" y="0" width="177" height="89">
<path d="M177 0H0V88.5H177V0Z" fill="white"/>
</mask>
<g mask="url(#mask0_216_484)">
<path d="M88.5006 25.2525C137.375 25.2525 177 24.7532 177 24.1394C177 23.5244 137.375 23.0276 88.5006 23.0276C39.6262 23.0276 0 23.5256 0 24.1407C0 24.7532 39.6262 25.2525 88.5006 25.2525Z" fill="black"/>
</g>
<mask id="mask1_216_484" style="mask-type:luminance" maskUnits="userSpaceOnUse" x="0" y="0" width="177" height="89">
<path d="M177 0H0V88.5H177V0Z" fill="white"/>
</mask>
<g mask="url(#mask1_216_484)">
<path d="M88.5006 54.8708C39.6262 54.8708 0 55.3689 0 55.9839C0 56.599 39.6262 57.097 88.5006 57.097C137.375 57.097 177 56.599 177 55.9839C177 55.3689 137.375 54.8708 88.5006 54.8708Z" fill="black"/>
</g>
<mask id="mask2_216_484" style="mask-type:luminance" maskUnits="userSpaceOnUse" x="0" y="0" width="177" height="89">
<path d="M177 0H0V88.5H177V0Z" fill="white"/>
</mask>
<g mask="url(#mask2_216_484)">
<path d="M10.3237 33.4254C10.3237 35.5748 11.9328 37.0916 14.5685 37.7809C16.8507 38.3795 17.7113 38.8852 17.7113 40.0448C17.7113 41.1478 16.8319 41.7452 15.5033 41.7452C13.6149 41.7452 12.3618 40.1378 11.8385 38.3242H10.5301L10.3426 41.4094C11.6699 42.0647 13.3356 42.6068 15.3171 42.6068C18.4032 42.6068 20.9257 41.3352 20.9257 38.6047C20.9257 36.1181 19.1128 34.7912 16.3815 34.0806C14.2502 33.5197 13.4274 33.0531 13.4274 31.9111C13.4274 30.8835 14.2867 30.2483 15.5587 30.2483C17.4672 30.2483 18.0283 30.9577 18.0283 32.1161C18.0283 32.8455 18.3089 33.1826 19.114 33.1826C20.0865 33.1826 20.4413 32.4733 20.4413 31.9312C20.4413 30.3414 17.8044 29.4258 15.5587 29.4258C12.5128 29.4245 10.3237 30.9564 10.3237 33.4254Z" fill="black"/>
</g>
<mask id="mask3_216_484" style="mask-type:luminance" maskUnits="userSpaceOnUse" x="0" y="0" width="177" height="89">
<path d="M177 0H0V88.5H177V0Z" fill="white"/>
</mask>
<g mask="url(#mask3_216_484)">
<path d="M24.666 30.3589L26.1631 30.8067V41.2219L24.666 41.6697V42.418H31.6988V41.6697L30.2016 41.2219V30.8067L31.6988 30.3589V29.6118H24.666V30.3589Z" fill="black"/>
</g>
<mask id="mask4_216_484" style="mask-type:luminance" maskUnits="userSpaceOnUse" x="0" y="0" width="177" height="89">
<path d="M177 0H0V88.5H177V0Z" fill="white"/>
</mask>
<g mask="url(#mask4_216_484)">
<path d="M46.7154 42.4181L47.2752 38.211H46.3417C44.8446 41.222 44.0042 41.5754 40.8803 41.5754V30.8067L42.3762 30.359V29.6094H35.3447V30.359L36.8406 30.8067V41.222L35.3447 41.6697V42.4168H46.7154V42.4181Z" fill="black"/>
</g>
<mask id="mask5_216_484" style="mask-type:luminance" maskUnits="userSpaceOnUse" x="0" y="0" width="177" height="89">
<path d="M177 0H0V88.5H177V0Z" fill="white"/>
</mask>
<g mask="url(#mask5_216_484)">
<path d="M61.8618 30.6206L63.0771 30.3602V29.6106H58.7946V30.3602L60.2917 30.808L57.2232 38.2122L54.044 30.808L55.5399 30.3602V29.6106H48.209V30.3602L49.4243 30.6206L55.4468 42.6054H56.5879L61.8618 30.6206Z" fill="black"/>
</g>
<mask id="mask6_216_484" style="mask-type:luminance" maskUnits="userSpaceOnUse" x="0" y="0" width="177" height="89">
<path d="M177 0H0V88.5H177V0Z" fill="white"/>
</mask>
<g mask="url(#mask6_216_484)">
<path d="M66.5342 30.3589L68.0314 30.8067V41.2219L66.5342 41.6697V42.4168H78.1112L78.6711 38.548H77.7363L75.941 41.5766H73.7343C72.592 41.5766 72.0686 41.3515 72.0686 40.3981V36.4904H74.4451L75.0616 38.1342H75.941V33.873H75.0616L74.4451 35.4993H72.0686V30.4508C75.0616 30.4508 76.5399 30.7136 77.3425 33.0316H78.0898V29.6106H66.5317V30.3589H66.5342Z" fill="black"/>
</g>
<mask id="mask7_216_484" style="mask-type:luminance" maskUnits="userSpaceOnUse" x="0" y="0" width="177" height="89">
<path d="M177 0H0V88.5H177V0Z" fill="white"/>
</mask>
<g mask="url(#mask7_216_484)">
<path d="M82.5034 29.6106V30.3577L83.9993 30.8055V41.2207L82.5034 41.6685V42.4181H89.5349V41.6685L88.039 41.2207V37.8362C88.3749 37.7796 88.6945 37.7242 88.9939 37.6488L92.6789 42.4181H97.3527V41.6685L95.8568 41.2207L92.5103 36.7331C94.8466 35.8741 95.5939 34.844 95.5939 33.3297C95.5939 31.2746 93.4061 29.6094 90.0407 29.6094H82.5034V29.6106ZM88.039 30.4898C90.6383 30.4898 91.5919 31.6117 91.5919 33.3511C91.5919 35.9684 90.525 36.3609 88.039 36.9218V30.4898Z" fill="black"/>
</g>
<mask id="mask8_216_484" style="mask-type:luminance" maskUnits="userSpaceOnUse" x="0" y="0" width="177" height="89">
<path d="M177 0H0V88.5H177V0Z" fill="white"/>
</mask>
<g mask="url(#mask8_216_484)">
<path d="M111.507 38.6047C111.507 36.1182 109.693 34.79 106.963 34.0794C104.832 33.5197 104.009 33.0518 104.009 31.9123C104.009 30.8835 104.868 30.2471 106.14 30.2471C108.047 30.2471 108.61 30.9577 108.61 32.1174C108.61 32.8468 108.89 33.1839 109.694 33.1839C110.668 33.1839 111.022 32.4733 111.022 31.93C111.022 30.3414 108.386 29.4246 106.141 29.4246C103.093 29.4246 100.905 30.9577 100.905 33.4266C100.905 35.5761 102.513 37.0904 105.15 37.7822C107.432 38.3808 108.292 38.8852 108.292 40.0436C108.292 41.1466 107.412 41.7453 106.085 41.7453C104.195 41.7453 102.943 40.1379 102.42 38.3242H101.11L100.923 41.4094C102.251 42.0647 103.916 42.6055 105.897 42.6055C108.982 42.6043 111.507 41.334 111.507 38.6047Z" fill="black"/>
</g>
<mask id="mask9_216_484" style="mask-type:luminance" maskUnits="userSpaceOnUse" x="0" y="0" width="177" height="89">
<path d="M177 0H0V88.5H177V0Z" fill="white"/>
</mask>
<g mask="url(#mask9_216_484)">
<path d="M129.666 41.6698L128.45 41.4082L123.514 29.4233L120.484 29.7981L115.809 41.4082L114.594 41.6698V42.4194H119.044V41.6698L117.173 41.2221L118.314 38.0815H123.12L124.374 41.2221L122.503 41.6698V42.4194H129.666V41.6698ZM120.633 31.8357L122.71 37.1282H118.67L120.633 31.8357Z" fill="black"/>
</g>
<mask id="mask10_216_484" style="mask-type:luminance" maskUnits="userSpaceOnUse" x="0" y="0" width="177" height="89">
<path d="M177 0H0V88.5H177V0Z" fill="white"/>
</mask>
<g mask="url(#mask10_216_484)">
<path d="M146.046 42.4369V30.8268L147.542 30.3589V29.6118H142.624V30.3589L144.68 30.8268V37.1657L138.116 29.6118H132.937V30.3589L134.431 30.7513V41.203L132.937 41.6696V42.418H137.872V41.6696L135.816 41.203V32.7146L144.586 42.4369H146.046Z" fill="black"/>
</g>
<mask id="mask11_216_484" style="mask-type:luminance" maskUnits="userSpaceOnUse" x="0" y="0" width="177" height="89">
<path d="M177 0H0V88.5H177V0Z" fill="white"/>
</mask>
<g mask="url(#mask11_216_484)">
<path d="M157.863 29.6106H151.093V30.3577L152.589 30.808V41.2207L151.093 41.6684V42.418H158.331C162.576 42.418 165.662 39.8749 165.662 36.0049C165.661 32.1726 162.987 29.6106 157.863 29.6106ZM156.629 41.5766V30.4533C160.538 30.4533 161.491 32.36 161.491 36.342C161.491 40.1189 160.145 41.5766 156.629 41.5766Z" fill="black"/>
</g>
<mask id="mask12_216_484" style="mask-type:luminance" maskUnits="userSpaceOnUse" x="0" y="0" width="177" height="89">
<path d="M177 0H0V88.5H177V0Z" fill="white"/>
</mask>
<g mask="url(#mask12_216_484)">
<path d="M44.0119 50.1682V50.1544C44.0119 49.9368 43.978 49.7494 43.9075 49.5922C43.8383 49.435 43.7364 49.2979 43.6018 49.1822C43.4659 49.0652 43.2986 48.9658 43.1011 48.8828C42.9035 48.7998 42.6783 48.7244 42.4267 48.659C42.2128 48.6011 42.0342 48.552 41.8933 48.508C41.7536 48.4665 41.6417 48.42 41.5612 48.3734C41.4806 48.3257 41.4253 48.2728 41.3926 48.2137C41.3624 48.1546 41.346 48.0842 41.346 48.0024V47.9898C41.346 47.8653 41.3989 47.7622 41.5058 47.6792C41.6127 47.5962 41.7725 47.5547 41.9876 47.5547C42.2003 47.5547 42.4154 47.5999 42.628 47.6855C42.8419 47.7735 43.0608 47.893 43.2835 48.0452L43.8534 47.2189C43.5968 47.0151 43.3149 46.8591 43.0092 46.7485C42.7035 46.639 42.3676 46.585 42.0015 46.585C41.7436 46.585 41.5096 46.6202 41.297 46.6919C41.0843 46.7636 40.8994 46.8654 40.7472 46.9975C40.5937 47.1308 40.4754 47.2893 40.3886 47.4717C40.3031 47.654 40.2615 47.8603 40.2615 48.0879V48.1018C40.2615 48.3483 40.2993 48.5546 40.3798 48.7218C40.4578 48.8879 40.5685 49.0262 40.7107 49.1381C40.8528 49.2501 41.0277 49.3432 41.2328 49.4199C41.4379 49.4953 41.6656 49.5645 41.9185 49.6261C42.1286 49.6777 42.2984 49.7268 42.4292 49.7746C42.5588 49.8223 42.6632 49.8689 42.735 49.9167C42.8104 49.9645 42.8595 50.016 42.8859 50.0701C42.9136 50.1242 42.9262 50.1871 42.9262 50.2588V50.2739C42.9262 50.421 42.8633 50.5342 42.7375 50.6185C42.6104 50.7015 42.4355 50.743 42.2053 50.743C41.9222 50.743 41.6593 50.6889 41.419 50.5795C41.1787 50.4701 40.9447 50.3229 40.7182 50.138L40.0703 50.9141C40.3697 51.1845 40.7006 51.3844 41.068 51.5165C41.4328 51.6461 41.8065 51.7115 42.1852 51.7115C42.4557 51.7115 42.7022 51.6775 42.9249 51.6083C43.1476 51.5391 43.3401 51.4385 43.4999 51.309C43.6597 51.1782 43.7855 51.0159 43.8748 50.8235C43.9679 50.6348 44.0119 50.4147 44.0119 50.1682Z" fill="black"/>
</g>
<mask id="mask13_216_484" style="mask-type:luminance" maskUnits="userSpaceOnUse" x="0" y="0" width="177" height="89">
<path d="M177 0H0V88.5H177V0Z" fill="white"/>
</mask>
<g mask="url(#mask13_216_484)">
<path d="M57.3048 50.6676H54.5986V49.6199H56.9488V48.6439H54.5986V47.634H57.2696V46.6567H53.5142V51.6424H57.3048V50.6676Z" fill="black"/>
</g>
<mask id="mask14_216_484" style="mask-type:luminance" maskUnits="userSpaceOnUse" x="0" y="0" width="177" height="89">
<path d="M177 0H0V88.5H177V0Z" fill="white"/>
</mask>
<g mask="url(#mask14_216_484)">
<path d="M69.8633 51.6433H71.1466L69.93 49.8637C70.247 49.7429 70.5049 49.558 70.7025 49.3027C70.9 49.0499 70.9981 48.7204 70.9981 48.3167V48.3028C70.9981 47.7859 70.8333 47.3822 70.5037 47.0929C70.1728 46.8036 69.7111 46.6577 69.1173 46.6577H66.8389V51.6446H67.9359V50.0485H68.7977L69.8633 51.6433ZM67.9334 49.0788V47.6475H69.0217C69.2934 47.6475 69.5035 47.7067 69.657 47.8249C69.8092 47.9431 69.8847 48.1205 69.8847 48.3594V48.372C69.8847 48.5871 69.8117 48.7581 69.6671 48.8864C69.5224 49.0147 69.3148 49.0788 69.0443 49.0788H67.9334Z" fill="black"/>
</g>
<mask id="mask15_216_484" style="mask-type:luminance" maskUnits="userSpaceOnUse" x="0" y="0" width="177" height="89">
<path d="M177 0H0V88.5H177V0Z" fill="white"/>
</mask>
<g mask="url(#mask15_216_484)">
<path d="M83.0921 51.6786L85.1088 46.6577H83.925L82.6216 50.168L81.3182 46.6577H80.1079L82.1234 51.6786H83.0921Z" fill="black"/>
</g>
<mask id="mask16_216_484" style="mask-type:luminance" maskUnits="userSpaceOnUse" x="0" y="0" width="177" height="89">
<path d="M177 0H0V88.5H177V0Z" fill="white"/>
</mask>
<g mask="url(#mask16_216_484)">
<path d="M95.5722 46.6567H94.4751V51.6411H95.5722V46.6567Z" fill="black"/>
</g>
<mask id="mask17_216_484" style="mask-type:luminance" maskUnits="userSpaceOnUse" x="0" y="0" width="177" height="89">
<path d="M177 0H0V88.5H177V0Z" fill="white"/>
</mask>
<g mask="url(#mask17_216_484)">
<path d="M108.36 51.6676C108.555 51.6273 108.732 51.5682 108.898 51.4902C109.062 51.4122 109.211 51.3192 109.35 51.2085C109.489 51.1003 109.62 50.9758 109.75 50.8387L109.052 50.1331C108.857 50.3142 108.66 50.4564 108.463 50.5608C108.268 50.6664 108.026 50.718 107.741 50.718C107.528 50.718 107.331 50.6765 107.153 50.5935C106.976 50.5117 106.824 50.3985 106.696 50.2551C106.572 50.113 106.473 49.9457 106.402 49.7571C106.33 49.5672 106.295 49.3647 106.295 49.1509V49.1383C106.295 48.9232 106.33 48.7232 106.402 48.5358C106.473 48.3472 106.572 48.1824 106.701 48.039C106.83 47.8982 106.982 47.7862 107.161 47.7045C107.338 47.624 107.532 47.585 107.741 47.585C107.992 47.585 108.22 47.634 108.421 47.7334C108.623 47.834 108.821 47.9698 109.015 48.1459L109.713 47.341C109.6 47.2278 109.477 47.1234 109.343 47.0291C109.21 46.9335 109.067 46.853 108.909 46.7876C108.752 46.7209 108.579 46.6681 108.385 46.6304C108.194 46.5914 107.981 46.5725 107.747 46.5725C107.363 46.5725 107.012 46.6392 106.693 46.7763C106.374 46.9121 106.101 47.097 105.872 47.3322C105.645 47.5674 105.467 47.839 105.339 48.1497C105.211 48.4616 105.146 48.7949 105.146 49.1496V49.1647C105.146 49.5219 105.211 49.8564 105.339 50.1696C105.467 50.4815 105.645 50.7545 105.872 50.9846C106.101 51.2148 106.372 51.3972 106.686 51.5292C106.998 51.6625 107.338 51.7292 107.704 51.7292C107.946 51.7279 108.165 51.7078 108.36 51.6676Z" fill="black"/>
</g>
<mask id="mask18_216_484" style="mask-type:luminance" maskUnits="userSpaceOnUse" x="0" y="0" width="177" height="89">
<path d="M177 0H0V88.5H177V0Z" fill="white"/>
</mask>
<g mask="url(#mask18_216_484)">
<path d="M122.962 51.6421V50.6674H120.256V49.6209H122.607V48.6437H120.256V47.6325H122.927V46.6577H119.173V51.6421H122.962Z" fill="black"/>
</g>
<mask id="mask19_216_484" style="mask-type:luminance" maskUnits="userSpaceOnUse" x="0" y="0" width="177" height="89">
<path d="M177 0H0V88.5H177V0Z" fill="white"/>
</mask>
<g mask="url(#mask19_216_484)">
<path d="M134.275 51.7139C134.546 51.7139 134.792 51.68 135.015 51.6121C135.238 51.5429 135.428 51.4423 135.59 51.3127C135.75 51.1819 135.875 51.0197 135.965 50.8272C136.054 50.6348 136.099 50.416 136.099 50.1695V50.1556C136.099 49.9368 136.064 49.7494 135.995 49.5921C135.926 49.4374 135.824 49.2991 135.688 49.1821C135.553 49.0664 135.385 48.9671 135.189 48.8841C134.991 48.801 134.766 48.7256 134.513 48.6602C134.3 48.6023 134.122 48.5533 133.981 48.5092C133.841 48.4665 133.729 48.4212 133.649 48.3734C133.567 48.3269 133.512 48.2741 133.48 48.2149C133.447 48.1546 133.434 48.0854 133.434 48.0036V47.9911C133.434 47.8665 133.486 47.7634 133.593 47.6804C133.7 47.5974 133.86 47.5559 134.074 47.5559C134.288 47.5559 134.502 47.6012 134.716 47.6867C134.928 47.7747 135.148 47.8942 135.371 48.0464L135.941 47.2201C135.684 47.0151 135.402 46.8579 135.097 46.7497C134.79 46.6415 134.455 46.5862 134.088 46.5862C133.831 46.5862 133.596 46.6214 133.384 46.6931C133.172 46.7635 132.987 46.8667 132.835 46.9987C132.681 47.132 132.56 47.2905 132.476 47.4729C132.392 47.6553 132.349 47.8603 132.349 48.0892V48.103C132.349 48.3495 132.387 48.5558 132.467 48.7205C132.545 48.8866 132.655 49.0262 132.798 49.1381C132.94 49.25 133.114 49.3431 133.319 49.4198C133.524 49.4953 133.753 49.5645 134.006 49.6261C134.216 49.6777 134.386 49.7267 134.517 49.7745C134.646 49.8223 134.749 49.8689 134.822 49.9166C134.898 49.9644 134.947 50.016 134.973 50.0701C135.001 50.1242 135.011 50.1871 135.011 50.2575V50.2738C135.011 50.4197 134.948 50.5342 134.824 50.6185C134.697 50.7015 134.521 50.743 134.292 50.743C134.006 50.743 133.744 50.6889 133.505 50.5795C133.265 50.47 133.031 50.3216 132.802 50.138L132.155 50.914C132.453 51.1844 132.787 51.3844 133.152 51.5165C133.522 51.6485 133.895 51.7139 134.275 51.7139Z" fill="black"/>
</g>
<mask id="mask20_216_484" style="mask-type:luminance" maskUnits="userSpaceOnUse" x="0" y="0" width="177" height="89">
<path d="M177 0H0V88.5H177V0Z" fill="white"/>
</mask>
<g mask="url(#mask20_216_484)">
<path d="M173.835 48.8865C173.835 48.6739 170.717 48.4802 165.675 48.3406C160.634 48.201 153.67 48.1155 145.978 48.1155V49.6587C153.67 49.6587 160.635 49.5719 165.675 49.4336C170.717 49.2915 173.835 49.1003 173.835 48.8865Z" fill="#76002F"/>
</g>
<mask id="mask21_216_484" style="mask-type:luminance" maskUnits="userSpaceOnUse" x="0" y="0" width="177" height="89">
<path d="M177 0H0V88.5H177V0Z" fill="white"/>
</mask>
<g mask="url(#mask21_216_484)">
<path d="M2.5752 48.8867C2.5752 49.0993 5.69275 49.293 10.7352 49.4326C15.7764 49.5722 22.7399 49.6577 30.4319 49.6577V48.1145C22.7399 48.1145 15.7751 48.2013 10.7352 48.3396C5.69275 48.4818 2.5752 48.6742 2.5752 48.8867Z" fill="#76002F"/>
</g>
<mask id="mask22_216_484" style="mask-type:luminance" maskUnits="userSpaceOnUse" x="0" y="0" width="177" height="89">
<path d="M177 0H0V88.5H177V0Z" fill="white"/>
</mask>
<g mask="url(#mask22_216_484)">
<path d="M114.934 57.2579C110.978 57.307 106.4 57.3472 101.426 57.3736C101.84 58.9546 102.424 60.6249 103.361 62.0385C104.875 64.3251 106.32 65.9626 108.034 66.9437C108.249 67.0657 108.467 67.1789 108.689 67.2807C110.252 67.9951 112.051 68.2064 114.31 67.9121C116.462 67.6317 117.622 69.7207 117.867 70.2226C117.897 70.2842 117.963 70.2968 118.012 70.2502C118.36 69.9245 119.421 68.5787 116.82 65.9652C115.412 64.5502 117.765 62.9856 120.759 66.2544C120.801 66.2997 120.805 66.2985 120.766 66.2494C120.34 65.6973 118.221 62.8611 119.306 62.4649C121.058 61.8272 122.367 64.9489 122.614 65.5841C122.638 65.6457 122.667 65.6432 122.681 65.579C122.815 64.9049 123.415 61.3757 122.177 57.1384C120.215 57.1824 117.792 57.2227 114.934 57.2579Z" fill="#76002F"/>
</g>
<mask id="mask23_216_484" style="mask-type:luminance" maskUnits="userSpaceOnUse" x="0" y="0" width="177" height="89">
<path d="M177 0H0V88.5H177V0Z" fill="white"/>
</mask>
<g mask="url(#mask23_216_484)">
<path d="M96.9311 65.042C96.0856 64.2019 95.0188 62.5228 97.5828 60.8613C99.0057 59.9382 99.3353 58.6779 99.2611 57.3862C97.7111 57.3938 96.1322 57.4001 94.5206 57.4051C94.5243 57.434 94.5281 57.463 94.5319 57.4906C94.5432 57.5761 94.5545 57.6604 94.5658 57.7422C94.5772 57.8252 94.5872 57.9069 94.5973 57.9862C94.6086 58.0654 94.6149 58.1446 94.63 58.2214C94.6564 58.3735 94.6816 58.5207 94.703 58.6628C94.7407 58.9471 94.7999 59.1986 94.8363 59.425C94.8552 59.5382 94.8716 59.6451 94.8867 59.742C94.9055 59.8388 94.9206 59.9281 94.9332 60.0099C94.9823 60.3356 94.9735 60.5343 94.898 60.5658C94.8225 60.5972 94.6854 60.4576 94.5004 60.1708C94.4539 60.0992 94.4048 60.0187 94.3532 59.9294C94.3042 59.8388 94.2576 59.7382 94.206 59.6313C94.1066 59.4137 93.9859 59.1647 93.8928 58.8779C93.8424 58.7358 93.7909 58.5861 93.7393 58.4289C93.7116 58.3509 93.6915 58.2679 93.6688 58.1861C93.6474 58.1031 93.6248 58.0189 93.6021 57.9321C93.5795 57.8453 93.5569 57.7585 93.5342 57.668C93.5229 57.6227 93.5103 57.5787 93.5002 57.5334C93.4927 57.4919 93.4839 57.4504 93.4763 57.4089C92.2824 57.4126 91.0746 57.4152 89.853 57.4164C90.3789 60.3016 92.1503 63.4875 96.9399 65.3552C97.0594 65.4017 97.1412 65.4181 97.1827 65.4068C97.2028 65.4017 97.2129 65.3879 97.2129 65.3703C97.2129 65.3527 97.2016 65.3275 97.1802 65.2961C97.1236 65.2143 97.0015 65.1112 96.9311 65.042Z" fill="#76002F"/>
</g>
<mask id="mask24_216_484" style="mask-type:luminance" maskUnits="userSpaceOnUse" x="0" y="0" width="177" height="89">
<path d="M177 0H0V88.5H177V0Z" fill="white"/>
</mask>
<g mask="url(#mask24_216_484)">
<path d="M86.5054 69.6843C84.9793 68.253 80.922 68.6064 79.5381 68.7662C78.2095 68.9196 78.1177 68.4719 78.7518 67.8103C78.7971 67.7625 78.8726 67.6883 78.9279 67.6518C79.7935 67.0708 82.7286 67.6984 83.1224 66.7085C83.4558 65.8684 84.2635 65.2986 84.5491 65.1175C84.5767 65.0999 84.5918 65.0748 84.5956 65.0483C84.6032 65.0005 84.5126 64.9125 84.4421 64.8446C82.516 63.002 79.8086 63.5529 78.4322 64.012C78.9103 63.3064 79.2299 62.5316 79.4098 61.7871C79.4991 61.4097 79.567 61.0425 79.6035 60.679C79.6475 60.318 79.6563 59.9608 79.6526 59.6175C79.635 58.9282 79.5104 58.2805 79.3041 57.7233C79.2651 57.6164 79.2198 57.5171 79.1758 57.4164C78.8889 57.4164 78.6033 57.4152 78.3165 57.4152C78.3882 57.5913 78.4536 57.7762 78.5052 57.9761C78.631 58.4604 78.6939 59.0138 78.6687 59.6112C78.6511 59.9105 78.626 60.2199 78.5694 60.5369C78.5203 60.8551 78.4435 61.1808 78.353 61.5041C78.168 62.1518 77.8799 62.7844 77.466 63.3655C77.4559 63.3793 77.4446 63.3919 77.4346 63.4057C76.7351 59.6514 73.6024 58.4138 72.6337 58.117C72.5393 58.0881 72.421 58.0441 72.4034 58.0742C72.3984 58.0843 72.4047 58.1032 72.4261 58.1283C72.684 58.4289 73.469 59.4011 73.0136 59.6288C72.9557 59.6577 72.8488 59.6753 72.7872 59.6967C71.9908 59.9734 70.861 61.5871 71.4787 63.3202C71.6209 63.7177 71.7291 64.1088 71.7945 64.4522C71.8046 64.5012 71.8121 64.549 71.8197 64.5956C72.0008 65.7225 71.6612 66.213 70.4182 64.388C68.1158 61.0098 64.7379 58.7018 62.2733 57.3473C61.5134 57.3422 60.7648 57.336 60.0288 57.3309C60.483 58.0114 61.0139 58.8276 61.3712 59.493C61.4731 59.6841 61.5612 59.8615 61.6291 60.0212C61.7637 60.3394 61.8178 60.5821 61.7411 60.6953C61.7159 60.7331 61.6769 60.757 61.6203 60.7633C61.5612 60.7708 61.502 60.7733 61.4417 60.7733C60.0666 60.7482 58.2989 58.5975 56.7326 57.3007C56.2294 57.2957 55.7312 57.2907 55.2443 57.2856C55.3512 57.4202 55.472 57.5623 55.6041 57.7133C55.6959 57.8189 55.7941 57.9271 55.8935 58.039C56.9427 59.2125 58.3178 60.6953 57.8888 61.6374C57.8611 61.6978 57.7995 61.7845 57.758 61.8348C57.1327 62.5857 55.9249 61.9229 54.9423 61.1494C54.8908 61.1091 54.8392 61.0676 54.7889 61.0261C54.6882 60.9444 54.5913 60.8614 54.497 60.7796C54.4039 60.6979 54.3133 60.6174 54.2277 60.5394C53.8881 60.2275 53.6239 59.9558 53.4981 59.8225C53.4528 59.7759 53.4175 59.7885 53.42 59.8539C53.4628 60.7884 53.9661 66.9953 60.02 69.0869C60.7711 69.346 61.5109 69.556 62.2305 69.7221C62.4104 69.7636 62.5903 69.8026 62.7677 69.839C67.5598 70.8289 71.402 69.9937 72.104 69.8202C72.1682 69.8051 72.2021 69.8415 72.177 69.9019C71.8386 70.7282 71.1101 70.9836 70.827 71.054C70.7956 71.0615 70.7528 71.0653 70.71 71.0678C70.6459 71.0703 70.5138 71.0565 70.4156 71.0477C68.1108 70.8326 64.5101 70.9383 63.2885 72.5532C62.5714 73.5003 62.6482 74.2021 62.813 74.8284C62.8306 74.8976 62.8507 74.9668 62.8696 75.0347C62.9866 75.4422 63.1086 75.8271 63.0256 76.2358C62.8444 77.1464 61.8845 76.6836 61.5675 76.5025C61.5096 76.471 61.4844 76.4911 61.5109 76.5503C61.5889 76.7213 61.6882 76.8685 61.8027 76.9892C61.8593 77.0508 61.921 77.1049 61.9852 77.154C62.8193 77.7891 64.1906 77.4244 64.68 76.3478C64.7077 76.2874 64.7442 76.188 64.7693 76.1289C65.1832 75.124 65.6852 74.9555 65.9092 74.9328C65.9733 74.9265 66.006 74.9831 65.9809 75.0435C63.6194 80.7196 65.0348 84.1218 65.8764 85.4537L65.8752 85.455C65.7733 86.0222 66.1884 87.6283 67.0578 88.1893C67.9271 88.7502 68.7235 88.3628 68.7235 88.3628L68.6241 87.9277C67.1383 88.2874 66.2551 86.685 66.6024 85.265C66.8301 84.733 67.2729 84.0677 68.1247 83.6325C69.2343 83.0665 69.9803 82.8464 71.4158 78.7286C71.4372 78.667 71.446 78.6695 71.436 78.7337C70.6773 83.6388 72.2286 85.1254 72.6462 85.4298C72.6991 85.4675 72.7242 85.4462 72.6991 85.3845C71.9115 83.42 73.6817 81.7082 74.8416 78.3513C75.9827 75.0523 74.0301 73.1104 73.2854 72.2425C73.2426 72.1935 73.1746 72.1117 73.1382 72.0564C72.6035 71.2401 73.4829 70.0805 74.2101 70.6389C75.8254 71.8778 74.9272 76.2547 78.6801 77.5514C82.0933 78.7312 85.4725 75.939 86.055 75.4246C86.1041 75.3818 86.0915 75.3617 86.0299 75.3806C85.7669 75.456 85.1102 75.6183 84.7768 75.4824C84.7466 75.4699 84.7189 75.4548 84.695 75.4372C84.5969 75.3655 84.5503 75.2523 84.5893 75.0749C84.7416 74.3782 85.8172 74.4021 86.1783 74.431C86.2437 74.436 86.2437 74.4385 86.1796 74.4234C85.3467 74.2348 84.5906 72.9796 86.1531 73.0123C87.4641 73.0399 88.0441 72.4199 88.2214 72.1721C88.2592 72.1193 88.2391 72.0992 88.1812 72.1281C86.9583 72.7544 87.9912 71.0766 86.5054 69.6843ZM83.1727 65.2873C83.1689 65.3276 83.0645 65.359 82.8808 65.3804C82.8356 65.3854 82.784 65.3904 82.7286 65.3942C82.6733 65.3992 82.6141 65.4055 82.55 65.4118C82.4216 65.4244 82.2757 65.4294 82.1159 65.447C82.0354 65.4533 81.9524 65.4609 81.8643 65.4684C81.7775 65.476 81.6869 65.4885 81.5938 65.4973C81.4064 65.5137 81.2076 65.5439 80.9987 65.5703C80.5823 65.6332 80.1269 65.7149 79.6551 65.8281C79.1833 65.9451 78.7405 66.0797 78.3416 66.2143C78.1441 66.2859 77.9529 66.3501 77.778 66.4205C77.6912 66.4557 77.6044 66.4847 77.5239 66.5186C77.4434 66.5526 77.3654 66.5853 77.2911 66.6155C77.1414 66.6733 77.0093 66.7349 76.8898 66.7827C76.8294 66.8066 76.7741 66.8293 76.7225 66.8494C76.6709 66.8708 76.6243 66.8896 76.5816 66.9073C76.4105 66.9714 76.3035 66.9915 76.2809 66.9576C76.2582 66.9236 76.3237 66.8381 76.462 66.7098C76.496 66.6784 76.535 66.6431 76.579 66.6054C76.6231 66.5689 76.6734 66.5337 76.7262 66.4947C76.8344 66.4167 76.9565 66.3274 77.0999 66.2419C77.1716 66.1992 77.2471 66.1526 77.3251 66.1061C77.4044 66.0608 77.4899 66.018 77.5767 65.9715C77.7503 65.8772 77.9428 65.7929 78.1454 65.7024C78.5543 65.5313 79.0172 65.3728 79.5154 65.2496C80.0149 65.1301 80.4993 65.0597 80.9409 65.0257C81.1623 65.0131 81.3724 64.9993 81.5699 65.0043C81.668 65.0056 81.7637 65.0043 81.8542 65.0093C81.9448 65.0156 82.0329 65.0207 82.1172 65.0257C82.2832 65.0358 82.433 65.0597 82.5651 65.0785C82.6305 65.0886 82.6909 65.0986 82.7475 65.11C82.8028 65.1225 82.8532 65.1351 82.8997 65.149C83.0796 65.1993 83.1765 65.2458 83.1727 65.2873ZM71.6423 68.5486C71.4108 68.5675 71.1554 68.5649 70.8824 68.5536C70.6106 68.5385 70.32 68.5058 70.0193 68.4555C69.4155 68.3562 68.7688 68.1801 68.1108 67.9487C67.7812 67.8304 67.4629 67.7072 67.1622 67.5701C67.01 67.5059 66.8666 67.4317 66.7219 67.3638C66.581 67.2909 66.4413 67.223 66.3092 67.1487C65.7758 66.857 65.3216 66.5526 64.9593 66.2708C64.2346 65.7049 63.8824 65.2546 63.9352 65.1993C63.9931 65.1351 64.441 65.4672 65.1971 65.9262C65.577 66.1551 66.0362 66.4105 66.5596 66.6633C66.6892 66.7287 66.8276 66.7878 66.9647 66.8532C67.1056 66.9135 67.2465 66.979 67.3937 67.0381C67.6856 67.1613 67.9926 67.2783 68.3096 67.3902C68.9449 67.6141 69.5601 67.7977 70.1238 67.921C70.4068 67.9814 70.6761 68.0304 70.9302 68.0644C71.1843 68.0958 71.4221 68.1222 71.6398 68.131C72.0763 68.1537 72.4299 68.1348 72.6777 68.121C72.8022 68.1172 72.8991 68.1084 72.9671 68.1122C73.035 68.1159 73.074 68.126 73.0803 68.1461C73.0853 68.1662 73.0576 68.1927 72.9972 68.2279C72.9369 68.2618 72.845 68.3084 72.723 68.3474C72.4751 68.4316 72.1065 68.5184 71.6423 68.5486ZM69.2469 76.432C67.9749 79.0506 67.2176 81.3007 67.049 81.2529C66.9735 81.2303 67.0679 80.6354 67.3383 79.7034C67.3736 79.5877 67.4101 79.4657 67.4478 79.3386C67.4868 79.2129 67.5321 79.0821 67.5774 78.9462C67.6655 78.6758 67.7724 78.3903 67.8844 78.0897C68.1159 77.491 68.3914 76.8421 68.7122 76.1742C69.0355 75.5089 69.3714 74.8875 69.696 74.3341C69.8608 74.0587 70.0181 73.7971 70.1741 73.5594C70.2521 73.4399 70.3263 73.3242 70.4005 73.2148C70.476 73.1066 70.5477 73.0009 70.6169 72.9016C71.178 72.1092 71.5844 71.6665 71.6498 71.7105C71.7945 71.8111 70.505 73.8059 69.2469 76.432ZM74.8165 61.4877C74.7473 61.3506 74.6856 61.2173 74.6177 61.0978C74.585 61.0374 74.556 60.9783 74.5246 60.9217C74.4931 60.8664 74.4617 60.8136 74.4327 60.762C74.3774 60.6576 74.3182 60.5683 74.2717 60.4853C74.2491 60.4438 74.2277 60.4048 74.2075 60.3683C74.1874 60.3331 74.1685 60.2992 74.1522 60.269C74.0893 60.147 74.0666 60.0652 74.0968 60.0363C74.127 60.0074 74.205 60.0363 74.3245 60.1143C74.3547 60.1344 74.3874 60.157 74.4227 60.1834C74.4566 60.2099 74.4919 60.2413 74.5284 60.274C74.6013 60.3419 74.6881 60.4186 74.7699 60.513C74.8114 60.5608 74.8555 60.6098 74.9007 60.6626C74.946 60.7155 74.9876 60.7733 75.0329 60.8324C75.1247 60.9507 75.209 61.0852 75.2971 61.2274C75.4669 61.5166 75.6267 61.8512 75.7525 62.2185C75.8745 62.587 75.95 62.9504 75.9903 63.2825C76.0054 63.4498 76.0205 63.6082 76.0179 63.7579C76.0179 63.8321 76.0205 63.9038 76.0167 63.973C76.0116 64.0422 76.0066 64.1076 76.0028 64.1717C75.9953 64.2975 75.9726 64.4107 75.955 64.5088C75.945 64.5578 75.9362 64.6031 75.9261 64.6446C75.9135 64.6874 75.9009 64.7238 75.8896 64.7578C75.8418 64.8924 75.7965 64.9628 75.7563 64.9578C75.716 64.9527 75.6833 64.8735 75.6594 64.7377C75.6543 64.7037 75.6481 64.666 75.643 64.6257C75.638 64.5855 75.6304 64.5415 75.6242 64.4937C75.6103 64.3994 75.604 64.2937 75.5839 64.1767C75.5764 64.1189 75.5688 64.0572 75.5612 63.9944C75.5537 63.9302 75.5399 63.8648 75.5298 63.7982C75.5122 63.6623 75.4807 63.5189 75.4518 63.368C75.3864 63.0687 75.3033 62.7429 75.1926 62.4071C75.0769 62.0751 74.946 61.7657 74.8165 61.4877ZM75.4581 69.9799C75.3172 69.6428 75.2404 69.3586 75.2102 69.1561C75.1788 68.9548 75.1876 68.8391 75.2266 68.8278C75.3121 68.8027 75.4782 69.2076 75.833 69.7887C75.9211 69.9346 76.0242 70.0893 76.1387 70.2516C76.2557 70.4125 76.3828 70.5823 76.5287 70.7496C76.8168 71.0879 77.1678 71.4288 77.5729 71.7369C77.9806 72.0413 78.4045 72.2853 78.8096 72.4689C79.0122 72.562 79.2097 72.6375 79.3959 72.7066C79.5834 72.7708 79.7608 72.8274 79.9256 72.8714C80.5823 73.0513 81.0163 73.1003 81.0163 73.1896C81.0163 73.2299 80.9069 73.2688 80.7043 73.2953C80.5018 73.3217 80.2061 73.3254 79.8451 73.2839C79.6639 73.2638 79.4664 73.2273 79.2563 73.1783C79.0474 73.1255 78.826 73.0613 78.5995 72.9745C78.1454 72.8035 77.6673 72.5494 77.2156 72.2124C76.7665 71.8715 76.3916 71.4829 76.101 71.093C75.9538 70.8993 75.8305 70.7031 75.7235 70.5169C75.6166 70.327 75.5273 70.1484 75.4581 69.9799Z" fill="#76002F"/>
</g>
<mask id="mask25_216_484" style="mask-type:luminance" maskUnits="userSpaceOnUse" x="0" y="0" width="177" height="89">
<path d="M177 0H0V88.5H177V0Z" fill="white"/>
</mask>
<g mask="url(#mask25_216_484)">
<path d="M89.0402 62.1557C88.9761 61.669 88.8352 61.1747 88.6301 60.6905C88.6049 60.6288 88.5747 60.5697 88.5483 60.5106C88.5194 60.4502 88.493 60.3886 88.4603 60.3308C88.3974 60.2125 88.3357 60.093 88.2627 59.9773C88.1243 59.7421 87.9608 59.517 87.7897 59.2982C87.6161 59.0793 87.4248 58.8718 87.2223 58.6693C87.016 58.4718 86.8008 58.2794 86.5719 58.1008C86.2536 57.8505 85.9063 57.6304 85.549 57.4216C84.9389 57.4216 84.3274 57.4229 83.7122 57.4229C83.3348 57.4229 82.9611 57.4216 82.585 57.4216C82.7334 57.4644 82.8844 57.5059 83.0291 57.5524C83.5701 57.7285 84.0871 57.9285 84.569 58.1649C85.0521 58.4001 85.5025 58.6706 85.9101 58.9712C86.1139 59.1208 86.3039 59.2818 86.4863 59.4453C86.665 59.6126 86.8335 59.7836 86.987 59.9635C87.1393 60.1446 87.2827 60.3257 87.4047 60.5169C87.4689 60.61 87.5242 60.7093 87.5809 60.8049C87.611 60.8527 87.6337 60.903 87.6614 60.9521C87.6865 61.0011 87.7142 61.0489 87.7369 61.0992C87.9256 61.4967 88.064 61.9029 88.1394 62.3029C88.2149 62.7028 88.2338 63.094 88.1998 63.4625C88.1671 63.8323 88.0828 64.1756 87.9558 64.485C87.83 64.7957 87.6677 65.0736 87.4903 65.3164C87.4047 65.4409 87.3066 65.5491 87.2147 65.6572C87.1166 65.7579 87.0248 65.8597 86.9254 65.944C86.831 66.0358 86.7304 66.11 86.6373 66.1867C86.5907 66.2245 86.5404 66.2559 86.4939 66.2899C86.4473 66.3213 86.4033 66.3565 86.3555 66.3855C86.2322 66.4634 86.1164 66.5288 86.007 66.5879C85.9705 66.3037 85.6535 65.9943 85.198 65.8371C84.647 65.6472 84.111 65.7528 84.0003 66.0735C83.8896 66.393 84.2456 66.8081 84.7967 66.998C85.0382 67.0822 85.2748 67.1049 85.4761 67.0822C85.4861 67.081 85.4949 67.081 85.505 67.0797C85.5679 67.0747 85.6384 67.0659 85.7164 67.0558C85.7944 67.0433 85.8774 67.0231 85.968 67.003C86.0573 66.9804 86.1542 66.9514 86.2561 66.9175C86.358 66.8823 86.4649 66.8408 86.5769 66.7917C86.6335 66.7691 86.6876 66.7376 86.7455 66.71C86.8021 66.681 86.8625 66.6521 86.9216 66.6169C87.0374 66.5464 87.1619 66.476 87.2814 66.3855C87.406 66.3024 87.5242 66.2006 87.65 66.0962C87.7683 65.9842 87.8941 65.8698 88.0086 65.7365C88.2426 65.4736 88.4653 65.1617 88.6477 64.7982C88.8301 64.4335 88.966 64.0159 89.0352 63.5694C89.0994 63.1204 89.1044 62.6437 89.0402 62.1557Z" fill="#76002F"/>
</g>
<mask id="mask26_216_484" style="mask-type:luminance" maskUnits="userSpaceOnUse" x="0" y="0" width="177" height="89">
<path d="M177 0H0V88.5H177V0Z" fill="white"/>
</mask>
<g mask="url(#mask26_216_484)">
<path d="M60.9171 22.8957C62.2293 22.8781 63.6207 22.8642 65.0801 22.8504C65.2122 22.6014 65.3267 22.3712 65.4362 22.165C65.4877 22.0668 65.5368 21.9738 65.5871 21.8857C65.9847 21.1814 66.3659 20.7903 67.3057 20.7311C67.361 20.7274 67.3786 20.7626 67.3459 20.8066C67.1635 21.0506 66.5936 21.8266 65.913 22.8416C66.3998 22.8378 66.893 22.8328 67.395 22.829C67.4126 22.7951 67.4302 22.7573 67.4478 22.7246C67.5107 22.619 67.5711 22.5146 67.629 22.4152C67.6441 22.3901 67.6592 22.3649 67.673 22.341C67.6881 22.3171 67.7045 22.2932 67.7209 22.2693C67.7523 22.2228 67.785 22.1775 67.8152 22.1323C67.8781 22.043 67.9347 21.9537 67.9976 21.8744C68.0618 21.7952 68.1222 21.7197 68.1813 21.648C68.2945 21.5021 68.4153 21.3839 68.5172 21.2783C68.5688 21.2254 68.6154 21.1776 68.6619 21.1349C68.7097 21.0934 68.7537 21.0569 68.794 21.0242C68.9563 20.8946 69.0557 20.8355 69.0809 20.8594C69.1048 20.8833 69.0519 20.989 68.9387 21.1563C68.9098 21.1978 68.8783 21.243 68.8418 21.2921C68.8066 21.3424 68.7726 21.399 68.7324 21.4569C68.6544 21.5763 68.5575 21.7034 68.4669 21.8568C68.4204 21.931 68.37 22.0103 68.3197 22.092C68.2681 22.1738 68.2216 22.2631 68.17 22.3524C68.1448 22.3976 68.1184 22.4429 68.0907 22.4894C68.0781 22.5133 68.063 22.536 68.0517 22.5599C68.0391 22.5838 68.0278 22.6089 68.014 22.6341C67.9838 22.6957 67.9498 22.7599 67.9171 22.824C70.3289 22.8051 72.8941 22.7913 75.5676 22.78C75.3764 22.3725 75.053 21.8442 74.5561 21.399C74.0528 20.95 73.4842 20.6884 73.0564 20.545C72.6274 20.3991 72.3368 20.3501 72.3381 20.2758C72.3381 20.2419 72.4123 20.2092 72.5507 20.1878C72.6878 20.1664 72.8904 20.1639 73.1382 20.1979C73.3848 20.2306 73.6754 20.306 73.9811 20.4393C74.2856 20.5727 74.6026 20.7664 74.892 21.0229C75.1801 21.282 75.4091 21.5751 75.5751 21.8618C75.7425 22.1499 75.8494 22.4316 75.9098 22.6731C75.9199 22.7095 75.9249 22.7423 75.9324 22.7775C76.2243 22.7762 76.5162 22.775 76.8118 22.7737C76.6533 21.9096 76.0482 20.867 74.4819 19.7816C74.8719 19.7086 75.3009 19.657 75.7613 19.6495C75.901 19.6432 76.0431 19.652 76.1891 19.6545L76.2432 19.657L76.2973 19.6621C76.3338 19.6646 76.3703 19.6684 76.4067 19.6721C76.4432 19.6747 76.4797 19.6784 76.5162 19.6809L76.5715 19.686L76.6269 19.6948C76.6999 19.7048 76.7754 19.7149 76.8496 19.7262C76.9251 19.735 76.998 19.7551 77.0735 19.769C77.1113 19.7765 77.1478 19.7841 77.1868 19.7916C77.2245 19.7979 77.261 19.8105 77.2987 19.8205C77.3729 19.8407 77.4484 19.8608 77.5227 19.8809C77.8196 19.9752 78.1115 20.0998 78.3895 20.2582C78.4964 20.3211 78.5983 20.3916 78.6977 20.4658C78.5505 20.545 78.4323 20.6745 78.3744 20.8431C78.2511 21.2003 78.4398 21.5889 78.7971 21.7122C79.0991 21.8166 79.4211 21.6958 79.5885 21.4418C79.635 21.521 79.6803 21.6015 79.7218 21.6858C79.874 21.9964 79.9873 22.3347 80.059 22.6907C80.064 22.7158 80.0678 22.741 80.0716 22.7649C80.41 22.7636 80.7509 22.7636 81.0931 22.7624C81.0793 22.6718 81.0655 22.5813 81.0466 22.4907C80.9585 22.053 80.8151 21.6266 80.6151 21.2342C80.4175 20.8406 80.1546 20.4821 79.8527 20.1777C79.562 19.8885 79.2387 19.6445 78.899 19.4558C78.6726 19.0156 78.5015 18.5578 78.392 18.1012C78.3253 17.8245 78.2838 17.5529 78.2825 17.2887C78.28 17.0271 78.319 16.7731 78.4033 16.5517C78.5732 16.109 78.9493 15.7619 79.3444 15.704C79.5394 15.6688 79.7419 15.7053 79.9156 15.7845C80.0904 15.8637 80.2351 15.9857 80.3307 16.1304C80.4289 16.275 80.483 16.4423 80.4993 16.6045C80.5157 16.7655 80.4968 16.9227 80.449 17.0586C80.4024 17.1944 80.3244 17.3214 80.2552 17.446C80.1848 17.5705 80.1206 17.69 80.0804 17.8132C80.0024 18.0585 80.0389 18.271 80.108 18.3893C80.1508 18.4622 80.1923 18.4962 80.2225 18.5125C80.2427 18.5276 80.2628 18.5402 80.288 18.549C80.449 18.6056 80.6427 18.4735 80.717 18.2559C80.7912 18.0383 80.722 17.817 80.5597 17.7604C80.4767 17.7315 80.3861 17.7516 80.3081 17.8082C80.3496 17.7352 80.3987 17.6598 80.4591 17.5768C80.5383 17.4623 80.6364 17.3353 80.7119 17.1655C80.7874 16.9957 80.8277 16.797 80.8201 16.5857C80.8138 16.3756 80.756 16.1518 80.6339 15.9442C80.5119 15.7367 80.3207 15.5569 80.0879 15.4386C79.8564 15.3204 79.5759 15.2563 79.2878 15.294C79.1456 15.3116 79.0022 15.3518 78.8701 15.4135C78.7367 15.4751 78.6134 15.5569 78.4989 15.6537C78.2737 15.8461 78.0926 16.0964 77.9731 16.3832C77.8548 16.6712 77.8045 16.9806 77.802 17.2925C77.7994 17.5265 77.8233 17.7591 77.8649 17.988C77.8787 18.0648 77.8951 18.1415 77.9114 18.2169C77.9831 18.5289 78.0813 18.8395 78.2033 19.1464C78.0586 19.0936 77.9139 19.047 77.7693 19.0081C77.6787 18.9867 77.5868 18.9678 77.4975 18.9477C77.4522 18.9389 77.4082 18.9263 77.3629 18.92C77.3176 18.9137 77.2736 18.9062 77.2295 18.8999C77.1402 18.8886 77.0521 18.871 76.9653 18.8634C76.8773 18.8571 76.7905 18.8496 76.7049 18.842L76.6407 18.837L76.5766 18.8357C76.5338 18.8345 76.4923 18.8332 76.4495 18.832C76.408 18.8307 76.3652 18.8307 76.3237 18.8295L76.2608 18.8282L76.1979 18.8307C76.0343 18.837 75.872 18.8395 75.716 18.8584C75.5751 18.871 75.438 18.8886 75.3046 18.9087C76.3853 17.7906 77.8221 15.5518 76.1853 12.5144C76.1589 12.4654 76.1425 12.4704 76.1463 12.5257C76.1778 12.9458 76.1941 14.5104 74.5812 13.8753C72.7255 13.1445 72.5821 17.2196 71.0485 16.6888C70.651 16.5517 72.8727 13.7482 72.8174 11.3787C72.8161 11.3233 72.8111 11.2328 72.8086 11.1774C72.6903 8.83681 72.6538 7.04581 70.6157 5.77802C69.993 5.38938 70.003 4.9932 70.0924 4.75549C70.1213 4.67751 70.1855 4.59576 70.1716 4.56683C70.1653 4.55425 70.1477 4.54922 70.12 4.55677C69.9766 4.58947 69.7011 4.6838 69.4671 4.94289C69.4381 4.97559 69.4092 5.01081 69.3815 5.04854C69.1878 5.31266 69.0418 5.71514 69.0595 6.32388C69.1073 7.97276 68.0643 6.39305 67.9284 5.06363C67.9234 5.00829 67.8504 5.00452 67.8391 5.0586C67.7586 5.4485 67.4353 6.84583 66.9484 6.67855C66.464 6.51128 66.9849 5.2611 67.1434 4.91019C67.166 4.85988 67.1497 4.84605 67.1069 4.88126C66.5961 5.30512 63.7679 7.84573 63.9063 12.0855C64.056 16.68 67.3937 17.0208 67.8202 19.3741C67.8303 19.4294 67.7938 19.4898 67.741 19.5074C67.4717 19.5916 66.7005 19.7765 66.308 19.247C65.9331 18.7414 65.9054 17.412 64.4448 16.4436C64.3869 16.4046 64.3253 16.3668 64.2624 16.3291C63.8837 16.104 63.4182 15.9027 62.842 15.7405C59.82 14.894 58.1568 17.0171 57.0346 15.5418C57.0006 15.4965 56.9654 15.504 56.9629 15.5594C56.9465 15.9216 57.1579 17.2082 60.6567 18.3251C60.7359 18.3515 60.8441 18.3654 60.8403 18.3893C60.8391 18.393 60.8252 18.3943 60.7963 18.393C60.2629 18.3628 57.7505 18.2962 56.8748 19.6394C55.8923 21.1474 55.0493 21.3776 54.258 20.823C53.5145 20.3023 53.6843 19.4432 53.9862 18.9213C54.0567 18.9779 54.1359 19.0257 54.2265 19.0571C54.653 19.2055 55.1198 18.9791 55.267 18.5515C55.4142 18.1239 55.1877 17.6585 54.7612 17.5114C54.3335 17.3629 53.868 17.5906 53.7208 18.017C53.639 18.2547 53.6755 18.5012 53.7937 18.7012C53.7761 18.7238 53.7598 18.749 53.7447 18.7729C53.4805 19.1816 53.0452 20.1413 54.0051 21.0368C54.4215 21.4254 54.9009 21.4631 55.1059 21.4581C55.1336 21.4569 55.1626 21.4657 55.1865 21.482C55.2255 21.5084 55.2657 21.609 55.3035 21.6832C55.4532 21.9801 55.8117 22.5071 56.5943 22.9598C57.8725 22.9372 59.3143 22.9158 60.9171 22.8957ZM72.1456 18.5163C72.1896 18.4949 72.2349 18.471 72.2852 18.4459C72.3846 18.3955 72.5004 18.3477 72.6224 18.2786C72.684 18.2459 72.7482 18.2132 72.8161 18.178C72.8828 18.144 72.9495 18.1 73.0199 18.0597C73.1621 17.9818 73.3055 17.8824 73.4578 17.7843C73.7559 17.5755 74.0704 17.3302 74.3749 17.041C74.6756 16.7492 74.9348 16.4448 75.1562 16.1568C75.2606 16.0084 75.3663 15.87 75.4493 15.7304C75.4934 15.6625 75.5386 15.5971 75.5764 15.533C75.6141 15.4676 75.6506 15.4047 75.6859 15.3443C75.7601 15.2261 75.8129 15.1116 75.867 15.0148C75.8947 14.9657 75.9199 14.9192 75.9425 14.8777C75.9639 14.8349 75.984 14.7959 76.0041 14.7607C76.0796 14.6198 76.1388 14.5444 76.1727 14.5544C76.2067 14.5645 76.2117 14.6576 76.1903 14.8211C76.1853 14.8626 76.1778 14.9079 76.1702 14.9569C76.1601 15.006 76.1451 15.0575 76.13 15.1154C76.0985 15.2286 76.0658 15.3581 76.0079 15.4952C75.9802 15.5631 75.9526 15.6361 75.9224 15.7103C75.8909 15.7845 75.8507 15.8587 75.8129 15.9367C75.7387 16.0952 75.6393 16.2524 75.5374 16.4209C75.321 16.7492 75.0505 17.0888 74.7234 17.4045C74.3938 17.7176 74.0428 17.9729 73.7069 18.1754C73.5358 18.271 73.3735 18.3628 73.2124 18.4295C73.1319 18.4647 73.0577 18.5012 72.9809 18.5289C72.9055 18.5553 72.8312 18.5817 72.762 18.6056C72.6236 18.6571 72.4915 18.6836 72.3783 18.7112C72.3217 18.7238 72.2689 18.7364 72.2185 18.7439C72.1682 18.7502 72.1229 18.7553 72.0814 18.759C71.9166 18.7729 71.8235 18.7641 71.8147 18.7301C71.8071 18.6961 71.8851 18.6408 72.0273 18.5704C72.0625 18.554 72.1015 18.5352 72.1456 18.5163ZM67.6944 15.3053C67.5435 14.7557 67.4428 14.2186 67.3812 13.7294C67.356 13.4841 67.3296 13.2502 67.322 13.0313C67.317 12.9219 67.3095 12.8163 67.3095 12.7144C67.3095 12.6125 67.3107 12.5144 67.3107 12.4213C67.3095 12.2352 67.3245 12.0667 67.3359 11.9195C67.3422 11.8453 67.3472 11.7774 67.356 11.7145C67.3661 11.6516 67.3749 11.5938 67.3837 11.5422C67.4202 11.3359 67.4579 11.2252 67.4919 11.2265C67.5271 11.229 67.556 11.3435 67.5799 11.5472C67.5862 11.5975 67.5913 11.6554 67.5963 11.717C67.6026 11.7786 67.6101 11.8466 67.6189 11.9182C67.634 12.0629 67.6441 12.2264 67.668 12.4062C67.6781 12.4955 67.6881 12.5899 67.6982 12.688C67.7095 12.7861 67.7246 12.888 67.7385 12.9923C67.7624 13.2036 67.8039 13.4263 67.8416 13.6615C67.9259 14.1306 68.0366 14.6412 68.1813 15.1695C68.3298 15.6977 68.5009 16.192 68.6695 16.6372C68.7588 16.8573 68.8393 17.0699 68.9286 17.2623C68.9714 17.3592 69.0091 17.4548 69.0519 17.5441C69.0934 17.6334 69.1337 17.7189 69.1714 17.8006C69.2444 17.9667 69.3211 18.1126 69.3815 18.2434C69.4117 18.3088 69.4407 18.3704 69.4658 18.427C69.4935 18.4823 69.5174 18.5339 69.5401 18.5804C69.6256 18.7678 69.6596 18.881 69.6306 18.8999C69.6017 18.92 69.5124 18.8433 69.374 18.6861C69.34 18.6471 69.3023 18.6031 69.262 18.5528C69.223 18.5037 69.1828 18.4471 69.1387 18.388C69.0532 18.2673 68.9525 18.1314 68.8569 17.9717C68.8078 17.8912 68.7575 17.8082 68.7047 17.7214C68.6531 17.6334 68.604 17.5403 68.5512 17.4434C68.4443 17.251 68.3461 17.0385 68.2417 16.8146C68.0404 16.3656 67.8504 15.8549 67.6944 15.3053ZM62.1991 21.0997C64.4058 20.7852 66.1356 20.2117 66.1885 20.3513C66.2111 20.4142 65.8048 20.6393 65.104 20.8972C65.0159 20.9286 64.9241 20.9613 64.8272 20.9953C64.7304 21.0292 64.6285 21.0594 64.524 21.0921C64.3139 21.16 64.0875 21.2204 63.8484 21.2845C63.3691 21.4053 62.8357 21.516 62.2708 21.599C61.7059 21.6795 61.1637 21.726 60.6692 21.7474C60.4214 21.7549 60.1874 21.7625 59.9672 21.7574C59.8578 21.7549 59.7521 21.7549 59.6489 21.7512C59.547 21.7461 59.4489 21.7411 59.357 21.7361C58.611 21.6895 58.1568 21.5902 58.1619 21.5235C58.1719 21.3713 59.9949 21.4279 62.1991 21.0997Z" fill="#76002F"/>
</g>
<mask id="mask27_216_484" style="mask-type:luminance" maskUnits="userSpaceOnUse" x="0" y="0" width="177" height="89">
<path d="M177 0H0V88.5H177V0Z" fill="white"/>
</mask>
<g mask="url(#mask27_216_484)">
<path d="M106.03 13.0427C106.003 13.0427 105.977 13.0301 105.959 13.0087C105.782 12.7861 105.471 12.0202 107.217 10.1562C109.297 7.93758 108.321 5.99565 107.354 5.58815C107.328 5.57683 107.307 5.57934 107.294 5.59066C107.269 5.6133 107.299 5.71518 107.313 5.79693C107.382 6.2233 107.397 7.08358 106.465 7.36657C105.206 7.75018 101.648 8.03317 101.732 13.9722C101.804 19.071 103.433 20.901 102.143 22.7964C102.65 22.7989 103.154 22.8014 103.651 22.8052C103.678 22.7272 103.713 22.6379 103.756 22.5385C103.795 22.4455 103.842 22.3423 103.895 22.2291C103.949 22.1185 104.01 21.999 104.077 21.8719C104.212 21.6179 104.365 21.3273 104.554 21.0179C104.647 20.8632 104.746 20.701 104.848 20.5312C104.951 20.3627 105.068 20.1929 105.184 20.0143C105.416 19.6558 105.682 19.2873 105.964 18.8987C106.537 18.1289 107.202 17.3089 107.949 16.4914C108.699 15.6764 109.458 14.9431 110.175 14.3055C110.539 13.9923 110.882 13.6942 111.219 13.4313C111.387 13.2993 111.546 13.1697 111.705 13.0515C111.865 12.9345 112.018 12.8226 112.164 12.7157C112.455 12.5006 112.731 12.3233 112.973 12.1673C113.095 12.0893 113.207 12.0176 113.313 11.9548C113.421 11.8931 113.519 11.8378 113.61 11.79C113.969 11.5988 114.187 11.5196 114.227 11.5774C114.268 11.634 114.129 11.8189 113.845 12.1057C113.773 12.1774 113.694 12.2541 113.605 12.3371C113.517 12.4214 113.421 12.5132 113.319 12.6126C113.114 12.8088 112.872 13.0213 112.616 13.2678C112.486 13.3886 112.349 13.5156 112.207 13.6477C112.065 13.7797 111.92 13.9206 111.769 14.064C111.463 14.347 111.148 14.6614 110.81 14.9871C110.145 15.6462 109.426 16.3807 108.694 17.1743C107.967 17.9717 107.298 18.7528 106.699 19.4722C106.406 19.8369 106.119 20.1778 105.864 20.5073C105.735 20.6708 105.607 20.8268 105.487 20.9802C105.369 21.1337 105.255 21.2796 105.145 21.4204C104.921 21.6984 104.73 21.9575 104.553 22.1788C104.463 22.2895 104.38 22.3926 104.303 22.487C104.228 22.5826 104.158 22.6693 104.092 22.7461C104.073 22.7687 104.057 22.7888 104.038 22.809C107.67 22.8316 111.025 22.8618 113.973 22.8982C115.005 22.9108 115.97 22.9247 116.868 22.9385C118.914 20.7903 119.583 18.5792 121.933 19.1691C121.961 19.1754 121.98 19.1716 121.987 19.1603C122.006 19.1339 121.941 19.0496 121.887 18.9855C121.409 18.4207 119.511 17.0699 113.231 19.5716C113.182 19.5917 113.176 19.5829 113.22 19.5527C113.841 19.1251 117.747 16.3115 117.481 13.4162C117.427 12.8264 117.415 12.3032 117.446 11.8416C117.485 11.2253 117.597 10.7184 117.774 10.3071C117.995 9.79524 118.319 9.43302 118.731 9.20034C118.813 9.1538 118.9 9.1123 118.989 9.07582C119.258 8.9664 119.558 8.901 119.886 8.87585C121.463 8.75259 122.191 9.99397 122.385 11.0178C121.839 10.9058 121.281 11.2089 121.095 11.7485C120.893 12.3359 121.205 12.9773 121.794 13.181C122.381 13.3848 123.023 13.0729 123.226 12.4843C123.376 12.0541 123.247 11.5963 122.936 11.3007C122.911 10.6014 122.621 8.45199 120.011 8.29981C118.901 8.23566 117.993 8.47589 117.703 8.56393C117.652 8.57902 117.58 8.56016 117.544 8.51991C117.457 8.42432 117.278 8.25201 116.993 8.08474C116.85 8.00173 116.681 7.91872 116.484 7.84828C114.973 7.30494 111.806 7.44329 106.213 12.9081C106.152 12.966 106.075 13.044 106.03 13.0427Z" fill="#76002F"/>
</g>
<mask id="mask28_216_484" style="mask-type:luminance" maskUnits="userSpaceOnUse" x="0" y="0" width="177" height="89">
<path d="M177 0H0V88.5H177V0Z" fill="white"/>
</mask>
<g mask="url(#mask28_216_484)">
<path d="M80.7093 9.80916C80.6803 9.82928 80.6967 9.93367 80.7055 10.0167C80.8741 11.4543 82.2114 18.7252 92.0447 22.7625C94.0866 22.765 96.092 22.7713 98.042 22.7776L98.0408 22.7763C98.0169 22.6833 97.9917 22.5889 97.9678 22.4921C97.9427 22.3965 97.9187 22.2984 97.8923 22.199C97.8797 22.15 97.8684 22.0984 97.8546 22.0494C97.8395 21.9991 97.8244 21.9487 97.808 21.8984C97.7489 21.6959 97.686 21.4884 97.6231 21.2746C97.3513 20.4256 97.0142 19.5075 96.594 18.5705C96.165 17.6385 95.6932 16.7807 95.2327 16.0173C95.1132 15.8286 94.9975 15.645 94.8842 15.4677C94.8553 15.4224 94.8276 15.3784 94.8012 15.3344C94.7723 15.2903 94.7421 15.2488 94.7131 15.2073C94.6553 15.1231 94.5974 15.04 94.542 14.9583C94.4854 14.8765 94.4313 14.7948 94.376 14.7156C94.3206 14.6363 94.2715 14.5571 94.2149 14.4841C94.1055 14.3345 93.9998 14.1923 93.8991 14.0565C93.7041 13.7773 93.5066 13.5433 93.3443 13.3245C93.2625 13.2151 93.1871 13.1132 93.1166 13.0201C93.0436 12.9296 92.977 12.8453 92.9203 12.7673C92.6889 12.4579 92.5807 12.2605 92.6272 12.2102C92.675 12.1586 92.8725 12.2592 93.1959 12.4881C93.2764 12.5447 93.3644 12.6114 93.4601 12.6831C93.5532 12.7573 93.65 12.8441 93.7557 12.9371C93.9633 13.1245 94.2061 13.3333 94.4426 13.5937C94.5634 13.7219 94.6905 13.8565 94.8226 13.9961C94.8893 14.0653 94.9496 14.142 95.0151 14.2187C95.0792 14.2955 95.1446 14.3747 95.2113 14.4539C95.2767 14.5344 95.3447 14.6149 95.4126 14.6979C95.4466 14.7394 95.4818 14.781 95.5145 14.825C95.5472 14.869 95.5799 14.913 95.6127 14.957C95.7435 15.1356 95.8769 15.3205 96.014 15.5092C96.5411 16.2802 97.0632 17.1719 97.5149 18.1529C97.9577 19.139 98.2861 20.1175 98.5214 21.0218C98.573 21.2494 98.6245 21.4721 98.6736 21.6871C98.6862 21.7412 98.6975 21.7953 98.7101 21.8481C98.7214 21.9022 98.729 21.955 98.7378 22.0079C98.7554 22.1135 98.773 22.2179 98.7906 22.321C98.807 22.4229 98.8233 22.5235 98.8397 22.6229C98.8485 22.677 98.856 22.7298 98.8636 22.7814C99.6612 22.7851 100.449 22.7876 101.226 22.7927C101.214 22.4619 101.196 22.0594 101.171 21.5941C101.157 21.3387 101.142 21.0658 101.124 20.7791C101.107 20.491 101.087 20.1879 101.064 19.8722C101.03 19.3993 100.991 18.8962 100.943 18.3755C100.913 18.0271 100.879 17.6712 100.843 17.3102C100.825 17.1291 100.805 16.9455 100.785 16.7631C100.704 16.0274 100.611 15.274 100.503 14.5219C100.449 14.1458 100.39 13.771 100.328 13.3987C100.047 11.7247 99.6839 10.116 99.2121 8.81052C97.3727 3.71169 93.211 -1.64497 87.1168 0.48185C87.0652 0.499458 87.0589 0.540963 87.1042 0.572406C87.6716 0.974879 90.9124 3.43877 88.8944 5.81336C87.3281 7.65719 84.6811 5.95422 83.2808 4.81346C82.7172 4.35439 82.6191 4.44872 83.0657 5.0235C83.9287 6.13282 85.3277 7.58046 86.3216 8.89982C86.3745 8.969 86.4248 9.03817 86.4751 9.10734C86.5745 9.24444 86.6701 9.38027 86.7582 9.51359C86.8022 9.58025 86.845 9.64691 86.8865 9.71231C87.2577 10.3022 87.4929 10.8405 87.4942 11.2807C87.4942 11.5574 87.1797 11.7134 86.967 11.5348C86.5179 11.16 85.6825 10.4644 84.8069 10.1714C84.7264 10.145 84.6471 10.1211 84.5679 10.1022C84.247 10.0242 83.9275 10.0091 83.6218 10.0896C82.2152 10.4619 81.0855 9.97392 80.7734 9.81544C80.7445 9.7991 80.7231 9.79909 80.7093 9.80916Z" fill="#76002F"/>
</g>
</g>
<defs>
<clipPath id="clip0_216_484">
<rect width="177" height="88.5" fill="white"/>
</clipPath>
</defs>
</svg>
